<?xml version="1.0" standalone="no"?>
<!DOCTYPE svg PUBLIC "-//W3C//DTD SVG 1.1//EN" "http://www.w3.org/Graphics/SVG/1.1/DTD/svg11.dtd" >
<svg>
<metadata>
Created by FontForge 20120731 at Thu Apr 18 06:58:59 2013
 By Jenkins
copyright missing
</metadata>
<defs>
<font id="ggouv-web-font" horiz-adv-x="700" >
  <font-face 
    font-family="ggouv"
    font-weight="400"
    font-stretch="normal"
    units-per-em="1000"
    panose-1="0 0 5 0 0 0 0 0 0 0"
    ascent="800"
    descent="-200"
    x-height="540"
    cap-height="637"
    bbox="-0.392305 -16 797 700"
    underline-thickness="50"
    underline-position="-50"
    unicode-range="U+0021-FFEE"
  />
<missing-glyph horiz-adv-x="500" 
d="M0 0v700h500v-700h-500zM250 395l170 255h-340zM280 350l170 -255v510zM80 50h340l-170 255zM50 605v-510l170 255z" />
    <glyph glyph-name=".notdef" horiz-adv-x="500" 
d="M0 0v700h500v-700h-500zM250 395l170 255h-340zM280 350l170 -255v510zM80 50h340l-170 255zM50 605v-510l170 255z" />
    <glyph glyph-name="A" unicode="A" 
d="M442 219l-131 66l-56 -89l10 111l283 233l-307 -220l-155 88l528 197z" />
    <glyph glyph-name="B" unicode="B" 
d="M160 575l6 6c2 0 3 1 4 1c3 0 6 -1 9 -4l30 -28l4 -4c1 -2 1 -4 1 -6c0 -4 -1 -6 -4 -9c-1 -1 -2 -2 -5 -3c-4 -2 -8 -2 -12 2l-32 28c-3 2 -4 4 -5 6c0 4 0 6 4 11zM293 566l15 -5c8 -5 10 -14 7 -23l-4 -9l253 -178c1 -1 2 -1 3 -1c4 0 7 2 7 5l2 3c2 2 6 3 10 1
l23 -10c3 -2 6 -6 4 -9l-54 -115c-3 -6 -7 -7 -9 -5l-24 11c-4 2 -5 5 -5 10l2 2c0 1 1 1 1 2c0 3 -3 7 -7 9l-81 18l-4 -13c-4 -19 -21 -30 -40 -27l-51 11c-18 3 -29 16 -29 33c0 3 0 5 1 8l3 13l-102 22l-6 -9c-3 -10 -12 -12 -21 -9l-13 8c-9 3 -13 12 -9 21l107 228
c3 7 7 10 13 10c2 0 5 0 8 -2zM156 467l-45 21c-5 2 -6 4 -8 7c0 1 -1 2 -1 4c0 5 4 11 9 14c5 1 7 1 11 -1l45 -21c4 -1 5 -3 6 -7c2 -5 2 -7 0 -10c-1 -4 -4 -6 -7 -7s-5 -1 -10 0zM278 459l263 -125l-241 172zM99 430l44 -8c5 0 8 -3 11 -8c1 -2 1 -2 0 -6
c-1 -5 -5 -9 -9 -11c-2 -1 -4 -1 -5 -1l-43 7c-4 1 -7 4 -8 8c-2 4 -2 5 -2 8c2 4 4 8 10 9zM337 293l-4 -15v-3c0 -6 3 -9 11 -13l51 -9h2c6 0 12 4 13 10l4 13z" />
    <glyph glyph-name="C" unicode="C" 
d="M185 593h330c30 0 55 -25 55 -55v-193c0 -30 -25 -55 -55 -55h-110v-82l-110 82h-110c-31 0 -55 25 -55 55v193c0 30 24 55 55 55z" />
    <glyph glyph-name="D" unicode="D" 
d="M171 606h85c17 0 32 -5 44 -17l15 -16c12 -11 25 -18 45 -18h177c13 0 28 -8 29 -20l7 -22h-439l9 68c1 15 15 25 28 25zM116 478h469c22 0 26 -8 24 -27l-21 -232c-2 -18 -7 -25 -29 -25h-418c-21 0 -26 7 -29 25l-21 232c-2 19 2 27 25 27z" />
    <glyph glyph-name="E" unicode="E" 
d="M411 452h166l-135 -100l48 -179l-140 106l-142 -106l50 179l-135 100h165l62 175z" />
    <glyph glyph-name="F" unicode="F" 
d="M461 526h-62c-4 0 -7 -2 -11 -5c-6 -7 -7 -12 -7 -18v-39h80v-79h-80v-188h-77v188h-64v79h64v37c0 28 10 54 28 73c19 20 39 30 67 30h62v-78z" />
    <glyph glyph-name="G" unicode="G" 
d="M348 588h-45c14 -3 24 -12 32 -27c11 -14 13 -31 13 -48c0 -23 -14 -48 -39 -65c-10 -10 -17 -14 -20 -20c-3 -4 -5 -12 -5 -18c0 -5 3 -11 12 -20c7 -8 15 -17 23 -20c16 -15 30 -23 33 -38c3 -13 10 -28 10 -46c0 -27 -11 -48 -31 -67c-25 -19 -55 -28 -96 -28
c-37 0 -67 6 -93 21c-26 16 -39 34 -39 56c0 25 13 46 37 65s56 30 91 30h11h11c-12 9 -18 21 -18 36c0 6 4 13 6 24h-12c-28 0 -51 6 -70 26c-19 18 -27 41 -27 64c0 28 11 49 33 68c24 19 50 28 80 28h127zM505 516h93v-30h-93v-94h-31v94h-93v30h93v93h31v-93zM228 590
c-17 3 -31 -5 -39 -20c-8 -10 -11 -23 -11 -41c0 -27 7 -49 25 -68c14 -18 30 -26 47 -26c15 -1 29 6 39 20c8 12 12 27 12 42c0 28 -11 50 -27 70c-13 14 -29 23 -46 23zM245 349c-26 2 -48 -6 -66 -19c-20 -13 -30 -31 -30 -48c0 -18 10 -35 25 -50c17 -13 37 -20 61 -20
c64 0 96 23 96 67c0 5 0 9 -1 14c-1 2 -3 6 -4 7c-2 5 -4 7 -5 10c-2 1 -4 4 -5 7c-2 1 -5 2 -10 7c-3 2 -6 4 -7 6c-3 1 -6 3 -12 6c-4 3 -7 7 -10 10c-12 2 -22 3 -32 3z" />
    <glyph glyph-name="H" unicode="H" 
d="M346 630h3c124 0 228 -100 231 -227v-3c0 -125 -100 -229 -227 -230h-6c-121 0 -227 101 -227 230c0 125 99 228 226 230zM411 526l31 51c-29 15 -61 23 -95 23c-33 -1 -63 -9 -90 -23l31 -51c20 9 41 14 62 14c20 0 41 -5 61 -14zM350 510c-31 0 -57 -11 -78 -32
s-32 -47 -32 -78c0 -61 49 -110 110 -110c60 0 110 49 110 110s-50 110 -110 110zM224 461l-52 31c-15 -28 -22 -58 -22 -91c0 -34 7 -65 22 -93l52 31c-9 19 -14 39 -14 60c0 22 5 43 14 62zM527 492l-52 -31c10 -20 15 -40 15 -61s-5 -41 -15 -61l52 -31
c15 29 23 60 23 95c-1 32 -8 61 -23 89zM442 223l-31 51c-20 -9 -40 -14 -61 -14c-22 0 -42 5 -62 14l-31 -52c31 -15 61 -22 91 -22h4c31 0 61 8 90 23z" />
    <glyph glyph-name="I" unicode="I" 
d="M422 576l16 49c3 10 12 13 20 12c9 -4 14 -12 11 -22c-1 -1 -1 -1 -1 -3l-31 -44c-2 -5 -6 -5 -10 -3c-5 2 -7 6 -5 11zM252 612l-2 4c0 2 -1 3 -1 5c0 6 4 11 12 15c2 1 4 1 5 1c5 0 10 -2 13 -7c2 -1 2 -3 2 -4l15 -50c1 -4 1 -9 -1 -10l-2 -1c-2 -1 -4 -1 -6 -1
c-3 0 -6 1 -7 4zM301 544h1c16 7 33 11 50 11c15 0 30 -3 44 -8c30 -11 56 -32 71 -64l2 -3v-2c3 -8 4 -13 6 -21c3 -14 4 -28 3 -45c0 -8 -1 -15 -2 -25c0 -9 -2 -15 -2 -26c-1 -13 0 -23 0 -32c0 -19 0 -32 -4 -42c-2 -5 -3 -8 -7 -11c-2 0 -3 0 -6 -1c-2 -3 -6 -5 -9 -6
l-9 -4l-5 -3l-18 -8l-11 -4l-6 -3c-2 0 -3 -1 -5 -1c-7 0 -13 4 -21 10c-6 4 -12 11 -20 16c-14 12 -31 27 -46 37s-28 19 -38 29c-7 5 -11 10 -16 17c-4 4 -8 10 -11 18l-2 5c-8 16 -12 35 -12 53c0 15 3 29 7 42c11 30 33 54 66 71zM152 492l48 -19c4 -2 6 -6 6 -9
s-1 -6 -3 -8s-4 -2 -8 -1l-51 7h-3l-1 1c-10 2 -12 11 -10 21c4 8 14 12 22 8zM508 465l44 14c2 1 3 1 5 1c6 0 11 -5 13 -12c1 -2 1 -3 1 -5c0 -6 -4 -11 -10 -13c-2 -1 -3 -1 -4 0l-47 -2h-1c-5 0 -7 4 -8 8c0 5 1 8 7 9zM183 309l40 24c2 2 3 2 5 2c3 0 6 -4 6 -8
c1 -3 0 -4 -1 -5l-31 -34c0 -1 -1 -1 -2 -3v-1c-2 -1 -5 -2 -7 -2c-5 0 -9 3 -12 8c-2 3 -3 6 -3 8c0 5 2 9 5 11zM405 236l61 28c3 2 6 2 9 2c7 0 13 -3 16 -9c1 -1 1 -3 1 -4c0 -6 -5 -14 -13 -16l-28 -14h-1l-32 -15c-3 -1 -7 -2 -9 -2c-6 0 -11 3 -13 8c-1 2 -1 4 -1 6
c0 6 3 12 10 16zM459 210l27 12c3 2 6 3 9 3c7 0 12 -4 15 -9c1 -2 1 -3 1 -5c0 -6 -4 -13 -12 -16l-28 -13h-2l-31 -16c-3 -1 -6 -2 -8 -2c-7 0 -12 4 -14 8c-1 2 -1 4 -1 6c0 7 3 13 9 15z" />
    <glyph glyph-name="J" unicode="J" 
d="M504 427v-5l-3 -7c-1 -1 -1 -3 -2 -6c-18 -43 -54 -51 -104 -58c-2 0 -4 0 -9 -1c2 -1 5 -2 6 -3c7 -5 12 -11 16 -21c2 -3 3 -20 4 -49c0 -30 1 -45 2 -47c1 -6 6 -11 12 -14c4 -2 6 -4 6 -6s-3 -4 -11 -4c-14 0 -28 8 -31 18c-3 7 -3 19 -3 41c0 16 -1 27 -2 33
c0 8 -2 9 -4 12c-1 2 -2 1 -2 -2c0 -2 0 -12 -1 -31c0 -29 1 -45 1 -53c1 -8 3 -13 7 -18c4 -4 5 -8 4 -10c-1 0 -3 -1 -5 -1c-1 0 -3 1 -6 1c-14 3 -24 15 -24 27c-1 4 -2 20 -4 46v46h-7v-34c0 -30 -1 -49 -3 -57c-4 -18 -15 -26 -25 -28c-3 -1 -6 -1 -7 -1
c-4 0 -5 1 -4 5c0 2 0 4 2 5s3 3 5 5c2 5 3 10 4 16c1 14 0 86 -1 87c-2 -1 -3 -5 -5 -7c-1 -5 -2 -19 -3 -44c-2 -48 -3 -53 -33 -56c-10 0 -17 4 -6 10c5 2 10 8 13 14c1 2 1 16 1 43v15c-5 -1 -13 -3 -22 -3c-4 0 -9 0 -13 1c-12 1 -22 6 -31 14c-4 6 -7 8 -10 15l-6 13
c-4 8 -11 17 -25 27c-3 2 -5 4 -5 6c0 3 4 5 11 5c13 0 28 -10 36 -24c10 -19 25 -24 38 -24c9 0 17 2 24 5c3 0 5 1 7 1c4 12 10 21 19 26h2c-11 2 -19 3 -25 5c-8 1 -12 2 -16 2c-11 2 -21 7 -34 15c-17 10 -28 24 -36 42h-5c-36 -3 -64 -8 -86 -13l-13 -3
c10 7 66 16 103 17c-1 3 -3 7 -4 12h-14c-29 -1 -53 -3 -74 -6l-12 -1c1 1 3 1 5 2c10 2 29 4 54 5c8 1 17 1 27 1h14c-5 16 -6 32 -6 44c0 26 6 49 20 67v3c-2 7 -4 14 -4 24c0 8 2 17 4 27c1 6 3 11 5 12c1 1 3 1 5 1s4 0 8 -1c22 -4 36 -14 49 -22c22 7 38 11 68 12h12
c10 0 17 -1 23 -2c16 -1 30 -6 43 -9c12 8 28 16 48 22h9h5c2 -2 3 -6 5 -13c2 -10 4 -19 4 -27c0 -9 -2 -16 -4 -23c10 -10 19 -29 21 -42c1 -5 2 -16 2 -30c0 -16 -1 -29 -3 -36l-1 -6h15c10 0 21 0 30 -1c26 -2 44 -4 55 -6l5 -2c-2 0 -7 1 -13 2c-20 3 -44 5 -73 5h-19z
M466 442v4c-1 9 -2 15 -4 20c-15 30 -33 30 -57 30h-37h-21h-56c-26 0 -36 -1 -50 -19c-7 -9 -11 -20 -12 -31v-5c0 -35 22 -61 85 -66c3 -1 10 -1 22 -1c5 0 10 0 19 1c44 0 62 1 81 10c9 3 20 16 24 24c4 11 6 21 6 33zM291 467h3c9 -2 16 -12 16 -26
c0 -11 -3 -18 -10 -23c-4 -2 -6 -3 -9 -3c-8 0 -19 12 -19 26c0 3 0 7 1 11c4 11 9 15 18 15zM407 465c11 -2 18 -12 18 -26c0 -11 -5 -18 -12 -23c-3 -1 -6 -2 -8 -2c-9 0 -20 11 -20 24c0 4 1 8 2 12c4 10 9 16 17 16c1 0 2 0 3 -1zM346 425h1c4 0 8 -4 8 -8
c0 -2 0 -3 -3 -4c-1 -1 -3 -2 -5 -2s-2 1 -4 2c-1 2 -2 3 -2 6c0 1 0 3 1 3c2 2 3 2 4 3zM501 415h3c19 0 40 -2 61 -6c23 -3 37 -7 42 -10c2 -1 2 -2 -2 -1c-1 1 -4 2 -11 4c-21 4 -49 10 -86 12zM356 403c1 3 7 3 7 0c0 -6 -3 -7 -8 -10c-2 -1 -6 -2 -9 -2
c-1 0 -6 1 -10 5s-5 10 2 5s9 -5 16 -4c1 1 1 3 2 6zM91 398h1h-1z" />
    <glyph glyph-name="K" unicode="K" 
d="M357 626l29 -9c11 -3 20 -5 26 -11l9 -5c3 -4 11 -13 14 -15l5 -9l9 -10c4 -8 7 -18 7 -35c0 -16 -2 -31 -5 -41l-2 -19h6c1 -6 1 -12 1 -18c0 -10 -1 -28 -6 -38c-5 -9 -10 -15 -15 -18l-3 -1c-1 -13 -5 -25 -8 -31c-3 -8 -4 -12 -6 -12c-3 -1 -6 -2 -6 -8
c0 -5 0 -8 3 -10c1 -1 3 -2 5 -1l1 1c6 -17 18 -28 33 -35c101 -39 154 -62 160 -68s8 -29 8 -46v-12h-543v6c0 28 3 45 9 52c6 6 58 29 161 68c11 7 25 19 29 29l2 6c1 0 2 0 3 -1s2 0 5 1c1 2 2 5 2 10c0 6 -2 7 -5 8c-3 0 -5 4 -7 12c-2 6 -5 18 -8 31c-1 0 -2 1 -2 2
c-3 2 -11 8 -16 17c-3 10 -6 28 -6 40c0 5 0 10 1 16l7 2c-5 9 -12 61 -12 73c0 8 12 40 18 46c4 3 15 8 20 9h5c0 9 25 23 51 23c12 1 20 1 21 1zM141 558h4c0 -1 10 -4 25 -8c5 -1 10 -3 13 -5l10 -5c7 -3 14 -13 16 -15c1 -1 3 -5 7 -9c3 -5 5 -8 5 -9c4 -6 6 -14 6 -25
v-9c-1 -7 -2 -13 -1 -20l-5 -27h6c1 -5 1 -11 1 -15c0 -9 -2 -23 -6 -32c-3 -8 -8 -13 -11 -14l-3 -1c-2 -12 -4 -21 -6 -28c-2 -6 -3 -8 -5 -8c-4 -1 -7 -2 -7 -8c0 -4 1 -8 3 -9h7l2 -6c-77 -31 -120 -50 -127 -57c-11 -11 -15 -35 -15 -73h-12v106l4 1c10 4 22 17 26 24
l1 5c2 0 3 -1 7 0c1 1 2 5 2 9c0 6 -2 7 -5 8c-2 0 -3 2 -5 8c-2 7 -5 16 -7 28c-1 0 -2 0 -2 1c-3 1 -9 7 -12 15c-5 8 -6 22 -6 31v15l7 2c-5 8 -8 27 -10 58v5c1 10 10 33 15 39c4 3 13 6 16 6l4 1c0 7 21 19 43 20c8 1 13 1 15 1zM566 558h4c1 -1 10 -4 24 -8
c10 -3 20 -7 26 -10c1 -1 3 -4 8 -8l6 -6c2 -2 12 -16 13 -19c2 -6 4 -12 5 -19v-24l-5 -38h5v-25c-2 -19 -10 -32 -14 -35l-5 -2c-2 -12 -3 -21 -6 -28c-3 -6 -5 -8 -6 -8c-3 -1 -6 -2 -6 -8c0 -4 1 -8 3 -9h5c7 -14 16 -23 28 -29h1v-107h-10v10c0 31 -4 53 -15 63
c-7 6 -48 26 -126 57l3 6c3 0 3 -1 6 0c2 1 3 5 3 9c0 6 -3 7 -5 8c-1 0 -3 2 -6 8c-2 7 -4 16 -6 28c-1 0 -2 0 -3 1s-9 7 -12 15s-5 22 -5 31c0 4 0 10 1 15l5 2c-2 3 -3 15 -6 32v13l-2 18h-1c1 10 9 33 15 39c3 3 12 6 17 6l3 1c0 7 21 19 43 20c8 1 13 1 15 1z" />
    <glyph glyph-name="L" unicode="L" 
d="M485 210l-95 95c-25 -14 -51 -21 -78 -21c-42 0 -80 16 -111 48c-32 32 -48 69 -48 112c0 85 70 154 155 154c86 0 159 -73 159 -159c0 -29 -8 -56 -22 -80l94 -95c6 -7 9 -12 9 -18c0 -4 -2 -8 -6 -12l-23 -24c-5 -5 -11 -8 -17 -8c-5 0 -11 3 -17 8zM308 551
c-29 0 -54 -10 -75 -31s-32 -47 -32 -76c0 -59 52 -112 111 -112c60 0 108 48 108 107s-53 112 -112 112z" />
    <glyph glyph-name="M" unicode="M" 
d="M283 352l-180 -124v286zM350 340l-233 174h467zM598 228l-180 124l180 162v-286zM598 206h-495l204 124l43 -39l42 39z" />
    <glyph glyph-name="N" unicode="N" 
d="M518 202h-336c-69 0 -127 57 -127 127c0 56 37 103 88 120c2 46 40 86 89 86c14 0 29 -3 42 -11c27 45 76 74 131 74c84 0 152 -66 153 -150c51 -16 87 -63 87 -119c0 -70 -57 -127 -127 -127zM516 435v10c0 61 -51 110 -111 110c-47 0 -87 -29 -104 -71
c-4 -9 -12 -14 -20 -14c-6 0 -12 3 -16 7c-9 10 -21 15 -34 15c-12 0 -23 -4 -32 -13s-14 -20 -14 -34v-9c0 -2 1 -3 1 -5c0 -9 -7 -17 -18 -19c-41 -7 -71 -41 -71 -83c0 -47 39 -84 85 -84h336c46 0 85 37 85 84c0 40 -30 76 -69 83c-11 2 -19 12 -18 23z" />
    <glyph glyph-name="O" unicode="O" 
d="M240 582l19 48c17 -1 32 -5 47 -11l-5 -52c11 -7 22 -14 31 -25l48 20c10 -11 19 -26 25 -40l-40 -32l1 -5c3 -11 5 -22 5 -34l47 -21c-1 -16 -5 -31 -11 -46l-52 6c-5 -11 -14 -22 -24 -31l21 -49c-14 -10 -27 -18 -41 -24l-32 40l-5 -1c-12 -4 -24 -5 -35 -5l-18 -48
c-16 3 -33 6 -48 12l6 52c-11 5 -21 13 -32 22l-48 -19c-11 14 -19 27 -25 41l40 33l-1 4c-3 12 -5 24 -5 35l-47 19c1 15 5 31 12 48l51 -7c5 11 13 22 25 32l-22 47c15 11 28 19 42 25l32 -40l5 1c12 4 22 5 34 5zM223 514c-4 -1 -10 -3 -17 -7c-20 -12 -31 -33 -31 -55
c0 -43 32 -68 67 -68c5 0 10 1 15 2c30 8 48 37 48 66c0 5 -1 11 -2 16c-1 4 -4 10 -7 17c-12 20 -34 31 -56 31c-6 0 -12 0 -17 -2zM483 452l16 -40c18 0 33 -3 47 -11l34 24c13 -8 23 -20 33 -32l-25 -34c3 -8 8 -15 9 -21c2 -7 3 -15 3 -25l39 -16c-3 -15 -5 -30 -13 -45
l-41 4c-9 -13 -20 -24 -35 -33l6 -41c-7 -4 -15 -6 -22 -7c-8 -3 -15 -4 -22 -5l-18 38c-15 1 -30 4 -45 12l-34 -25c-13 10 -23 22 -32 33l24 33c-4 12 -7 19 -9 23c-1 6 -2 13 -3 23l-38 17c2 16 6 30 12 45l41 -5c9 15 21 26 33 34l-4 42c7 3 14 5 21 8c8 1 16 3 23 4z
M484 360c-13 -3 -24 -11 -31 -24c-5 -8 -7 -16 -7 -24c0 -30 25 -53 53 -53c30 0 50 24 50 51c0 5 -1 9 -2 14c-6 23 -26 38 -48 38c-5 0 -10 -1 -15 -2z" />
    <glyph glyph-name="P" unicode="P" 
d="M370 589l55 -46c5 -4 7 -8 7 -13c0 -4 -1 -7 -4 -11l-31 -35l-81 68l30 36c3 3 8 5 12 5s8 -1 12 -4zM544 589l57 -46c4 -4 6 -8 6 -13c0 -3 -1 -7 -4 -11l-31 -35l-81 68l30 36c3 3 8 5 13 5c3 0 7 -1 10 -4zM384 466l-178 -211l-81 70l177 212zM558 466l-177 -211
l-80 70l176 212zM332 327l46 -39l147 176l-45 39zM192 242l-99 -37l20 104zM368 242l-100 -37l20 104z" />
    <glyph glyph-name="Q" unicode="Q" 
d="M177 583h346c31 0 58 -27 58 -58v-203c0 -31 -27 -58 -58 -58h-116v-86l-115 86h-115c-33 0 -59 27 -59 58v203c0 31 26 58 59 58zM385 409l11 12c13 11 21 15 24 19c7 12 10 23 10 34c0 44 -34 67 -81 67c-35 0 -69 -16 -71 -75h42c0 8 3 19 8 25c5 8 14 12 25 12
c13 0 19 -3 23 -11c6 -4 9 -11 9 -20c0 -7 -3 -10 -9 -17l-7 -10l-5 -5c-11 -5 -26 -15 -30 -25c-4 -4 -6 -11 -7 -32c0 -2 1 -4 4 -4h36c2 0 2 2 2 4v14c2 6 7 8 16 12zM374 325v2c0 14 -7 24 -25 24c-8 0 -11 -3 -16 -6c-7 -4 -9 -10 -9 -20c0 -12 10 -23 25 -24
c16 0 25 11 25 24z" />
    <glyph glyph-name="R" unicode="R" 
d="M215 604h271c19 0 35 -6 48 -20s20 -30 20 -47v-273c0 -18 -7 -36 -19 -47c-14 -13 -30 -21 -49 -21h-271c-19 0 -35 8 -49 21c-12 11 -19 29 -19 47v273c0 17 7 33 20 47s29 20 48 20zM223 535v-52c58 0 108 -21 148 -61c41 -42 62 -90 62 -150h50c0 48 -11 92 -34 131
c-24 41 -56 72 -96 95c-38 24 -83 37 -130 37zM223 445v-50c34 0 63 -12 86 -35c25 -24 38 -53 38 -88h48c0 48 -17 89 -49 122c-35 34 -76 51 -123 51zM258 343c-9 0 -17 -5 -24 -10c-7 -8 -11 -16 -11 -25s4 -18 11 -25c6 -7 14 -11 24 -11s18 4 25 11c6 7 9 16 9 25
s-3 17 -9 25c-7 5 -15 10 -25 10z" />
    <glyph glyph-name="S" unicode="S" 
d="M319 591h30c53 0 99 -19 137 -55c37 -38 56 -84 56 -137c0 -9 -1 -17 -2 -27c14 -19 20 -40 20 -64c0 -32 -11 -59 -33 -81c-23 -23 -49 -35 -82 -35c-22 0 -42 7 -61 18c-11 -2 -24 -3 -35 -3c-53 0 -99 19 -136 57c-38 36 -57 82 -57 135c0 11 1 20 3 30
c-13 19 -19 40 -19 63c0 32 11 59 33 81c23 23 49 35 82 35c23 0 45 -7 64 -17zM322 543c-22 -3 -41 -11 -57 -25c-16 -13 -25 -33 -27 -57c-3 -25 7 -44 29 -57c21 -14 47 -26 74 -31c11 0 19 -2 28 -3c9 -3 15 -8 24 -13c6 -3 9 -8 10 -15v-2c0 -5 -3 -11 -7 -19
c-8 -9 -18 -14 -33 -15c-4 0 -8 -1 -12 -1c-7 0 -14 1 -21 4c-9 2 -16 5 -23 9c-2 1 -5 5 -11 12c-7 6 -13 12 -18 18c-7 4 -14 6 -21 5c-13 -1 -20 -8 -23 -20c-2 -14 3 -27 16 -41c14 -13 31 -22 49 -28c14 -5 33 -7 55 -7c36 0 68 10 92 37c14 15 21 31 21 47
c0 8 -1 16 -5 25c-3 7 -8 15 -14 23c-6 4 -12 11 -17 16c-6 5 -14 5 -25 10c-10 4 -19 7 -26 9c-3 2 -15 4 -27 6c-13 2 -24 5 -30 6c-3 1 -8 3 -13 6c-11 5 -16 11 -16 18c0 5 2 10 6 15c7 15 23 22 44 22c15 -1 25 -5 36 -12c14 -7 22 -15 31 -22c8 -8 15 -13 20 -12
c7 1 13 6 18 12c4 5 6 13 5 22c-2 9 -8 18 -18 26c-24 22 -57 33 -96 33c-6 0 -12 0 -18 -1z" />
    <glyph glyph-name="T" unicode="T" 
d="M341 474h4c0 7 -2 14 -2 20c0 37 18 70 49 88c14 10 30 15 49 15c25 0 49 -9 70 -30c25 2 47 13 67 28c-8 -25 -21 -45 -43 -60c20 3 38 8 54 14c-10 -21 -24 -34 -48 -49v-15c0 -52 -14 -101 -38 -142c-24 -42 -61 -77 -102 -101c-40 -23 -90 -39 -140 -39
c-52 0 -104 18 -149 45c69 3 115 18 141 42c-48 3 -78 33 -87 72c10 -2 17 -3 24 -3c4 0 10 0 16 1c-43 8 -76 46 -76 84c0 4 1 9 2 16l9 -2c7 -5 11 -8 20 -8c2 -1 6 -1 9 -1c-28 21 -40 46 -40 74v1c1 25 5 43 12 54c28 -35 59 -60 98 -78c6 -2 12 -5 17 -7s12 -3 24 -7h3
s0 -1 2 -1h1c8 -1 14 -3 16 -3s9 -1 19 -4c9 -3 17 -4 19 -4z" />
    <glyph glyph-name="U" unicode="U" 
d="M380 554l29 24c18 15 40 29 62 29c27 0 53 -23 75 -46c16 -21 34 -48 30 -75c-2 -25 -22 -49 -43 -66l-93 -77c-27 -21 -52 -33 -76 -33c-26 0 -46 11 -63 32c-5 8 -8 14 -8 20c1 7 5 13 11 18c6 3 12 5 19 5c7 -1 13 -4 19 -8c6 -8 13 -12 22 -12c11 -2 26 5 43 18
l92 77c11 10 16 23 16 35c0 11 -3 21 -10 31c-11 12 -23 20 -35 21c-8 0 -18 -2 -28 -9l-27 -26c-8 -5 -15 -7 -20 -7c-7 0 -13 5 -18 11c-4 6 -6 12 -6 20c1 9 3 12 9 18zM159 370l86 72c30 24 58 35 84 35c23 0 44 -11 62 -30c5 -5 7 -12 7 -19c-2 -14 -15 -26 -29 -25h-2
c-8 1 -13 5 -17 11c-5 6 -13 9 -21 10c-12 1 -30 -5 -49 -23l-88 -71c-9 -9 -14 -20 -15 -31c-2 -13 2 -25 10 -37c8 -9 20 -15 33 -16c11 -2 25 2 35 9l23 22c6 5 13 7 19 7c7 -1 13 -4 19 -12c5 -5 7 -13 6 -19c0 -6 -4 -13 -10 -17l-23 -20c-20 -15 -43 -23 -66 -23
c-29 0 -56 13 -77 36c-15 18 -23 39 -23 61c0 4 1 8 1 12c2 27 13 50 35 68z" />
    <glyph glyph-name="W" unicode="W" 
d="M615 595h38c4 0 4 0 4 -6c0 -4 0 -4 -4 -11c-38 0 -49 -16 -70 -53l-136 -314c0 -6 0 -6 -6 -6c-5 0 -5 0 -11 6l-87 161l-80 -161c0 -6 0 -6 -5 -6c-6 0 -10 0 -10 6l-143 314c-14 42 -31 53 -59 53h-4v11c0 6 0 6 4 6c6 0 17 0 28 -6h28c10 0 21 0 31 6h32
c6 0 6 -6 6 -10c0 -7 0 -7 -6 -7c-25 0 -36 -11 -36 -27c0 -5 0 -16 4 -26l108 -244l70 146l-53 98c-28 42 -38 53 -65 53c-5 0 -5 7 -5 11v6h37c12 -6 16 -6 23 -6c4 0 15 0 32 6h31l7 -6c0 -4 0 -11 -7 -11c-27 0 -38 -11 -38 -27c0 -5 7 -16 11 -26l38 -72l38 82
c7 11 11 16 11 21c0 18 -11 22 -39 22v7c0 4 0 10 7 10c11 0 21 0 32 -6h65c11 6 22 6 39 6c4 0 4 0 4 -6c0 -4 0 -4 -4 -11c-28 0 -39 -11 -60 -53l-59 -125l63 -125l115 260v16c0 16 -17 27 -38 27v17h43c16 -6 27 -6 38 -6c17 0 27 0 38 6z" />
    <glyph glyph-name="X" unicode="X" 
d="M436 523h19c10 0 76 -23 90 -28c4 -3 6 -8 1 -13c0 -2 -3 -4 -6 -4h-380c-4 0 -6 2 -7 4c-2 2 -3 4 -3 5c0 3 2 6 5 8c14 5 78 28 89 28h21v67h171v-67zM155 454h390c11 0 23 -12 23 -27v-78c0 -13 -12 -27 -23 -27h-45l20 -112h-340l20 112h-45c-11 0 -23 14 -23 27v78
c0 15 12 27 23 27zM256 401l-31 -147h250l-31 147h-188z" />
    <glyph glyph-name="Y" unicode="Y" 
d="M144 606h412c29 0 53 -24 53 -51v-310c0 -28 -24 -51 -53 -51h-412c-30 0 -53 23 -53 51v310c0 27 23 51 53 51zM542 555h-384c-9 0 -14 -5 -14 -13v-284c0 -8 5 -13 14 -13h384c9 0 14 5 14 13v284c0 8 -5 13 -14 13zM297 403h-129v125h129v-125zM196 501v-71h72v71h-72
zM399 432v23c0 18 7 43 45 43c19 0 31 -3 42 -13c6 -12 9 -19 9 -30c0 -7 -3 -14 -4 -23h1c1 -2 5 -5 5 -11c-2 -5 -4 -11 -7 -13c-3 -3 -4 -5 -4 -8c-3 -3 -6 -10 -11 -22c-2 -7 -3 -7 -3 -7c0 -22 8 -31 40 -42c0 0 2 -3 12 -3c4 -3 6 -3 8 -6v-49h-203v25
c0 11 18 21 44 33c36 10 46 20 46 42c0 0 -3 0 -5 7c-5 12 -9 19 -11 22c0 3 -3 5 -4 8v13c0 7 1 11 0 11zM297 337h-129v28h129v-28zM297 271h-129v28h129v-28z" />
    <glyph glyph-name="Z" unicode="Z" 
d="M144 606h412c29 0 53 -24 53 -51v-310c0 -28 -24 -51 -53 -51h-412c-30 0 -53 23 -53 51v310c0 27 23 51 53 51zM542 555h-384c-9 0 -14 -5 -14 -13v-284c0 -8 5 -13 14 -13h384c9 0 14 5 14 13v284c0 8 -5 13 -14 13zM268 430h-100v98h100v-98zM191 505v-55h55v55h-55z
M419 411l-2 19c0 17 6 38 39 38c17 0 27 -2 36 -12c5 -9 8 -16 8 -26c0 -4 -3 -11 -4 -19h1c2 -1 5 -4 5 -9c-2 -5 -3 -11 -7 -12c-2 -2 -3 -4 -3 -6c-2 -3 -4 -11 -9 -19l-3 -6c0 -21 8 -27 35 -38c0 0 2 -3 9 -3c4 -2 6 -2 8 -4v-42h-174v23c0 7 15 18 37 26
c30 10 40 17 40 38c0 0 -3 0 -5 6c-5 9 -8 16 -10 19c0 2 -1 4 -3 6v12c0 6 2 9 2 9zM324 381l-3 17c-1 11 9 28 35 28c15 0 22 -2 24 -9c10 -8 11 -15 11 -19c0 -6 -1 -11 -4 -17h3c1 0 2 0 2 -1c0 -14 -1 -21 -6 -21h-6c0 -5 -1 -9 -2 -14c-2 -3 -4 -4 -4 -8
c0 -6 2 -7 4 -13c-23 -9 -33 -22 -33 -29v-23h-65v19c0 4 8 11 29 20c22 5 30 13 30 26c0 4 -2 5 -3 8c-5 5 -7 9 -8 14h-3c-2 0 -4 7 -5 21c0 1 1 1 4 1zM268 379h-100v21h100v-21zM268 327h-100v22h100v-22z" />
    <glyph glyph-name="a" unicode="a" 
d="M113 213l222 391c4 5 9 8 16 8s13 -3 15 -8l222 -391c1 -3 2 -6 2 -9s-1 -6 -2 -9c-4 -5 -8 -7 -15 -7h-445c-6 0 -11 2 -15 7c-2 3 -3 6 -3 10c0 2 1 5 3 8zM366 476h-31c-10 0 -15 -5 -15 -15v-121c0 -10 5 -15 15 -15h31c10 0 15 5 15 15v121c0 10 -5 15 -15 15z
M366 288h-31c-10 0 -15 -5 -15 -15v-21c0 -10 5 -15 15 -15h31c10 0 15 5 15 15v21c0 10 -5 15 -15 15z" />
    <glyph glyph-name="b" unicode="b" 
d="M246 621c5 0 10 -2 15 -7c6 -6 15 -10 26 -10c88 2 118 -34 180 -167c10 -23 29 -35 43 -37c13 -2 31 -15 39 -39c2 -3 2 -7 2 -11c0 -43 -71 -113 -166 -148c-44 -15 -85 -23 -122 -23c-9 0 -17 0 -26 1c-61 6 -81 30 -81 57c0 12 4 25 10 37c8 13 11 26 11 39
c0 5 0 11 -2 16c-15 54 -25 95 -25 130c0 48 17 83 57 116c12 9 15 20 15 27c0 6 3 13 15 17c3 1 6 2 9 2zM194 234v-4c2 -4 10 -8 25 -11c10 -3 25 -4 41 -4c33 0 75 6 114 20c59 21 111 62 129 88c8 11 12 18 12 24c0 9 -8 13 -23 18c-8 2 -17 3 -28 3
c-31 0 -77 -9 -128 -27c-68 -25 -118 -61 -133 -85c-6 -9 -9 -16 -9 -22zM362 329v-1c2 -4 2 -8 2 -11c0 -24 -22 -49 -54 -61c-14 -5 -26 -8 -37 -8c-15 0 -28 5 -39 15c27 23 63 43 109 59c3 1 9 4 19 7z" />
    <glyph glyph-name="c" unicode="c" 
d="M343 617c124 0 219 -93 223 -210c0 -122 -94 -219 -209 -222c-125 0 -222 94 -222 212c0 121 94 215 208 220zM345 571c-91 -2 -165 -79 -165 -176c3 -89 77 -164 173 -164c92 0 167 78 167 174c-1 92 -78 166 -175 166zM322 381l25 -11c-7 -11 -11 -17 -22 -24
c-9 -6 -21 -9 -30 -9c-17 0 -33 6 -46 16c-10 12 -16 26 -16 48c0 21 6 36 17 46c12 12 26 18 43 18c27 0 44 -11 52 -30l-25 -13c-3 6 -7 9 -12 11c-4 4 -8 5 -10 5c-18 0 -28 -12 -28 -37c0 -22 10 -37 28 -37c10 0 20 7 24 17zM441 381l26 -11c-11 -21 -33 -33 -54 -33
c-17 0 -33 6 -44 16c-9 12 -14 26 -14 48c0 21 5 36 15 46c10 12 24 18 42 18c26 0 44 -11 55 -30l-28 -13c-3 6 -7 9 -11 11c-5 4 -8 5 -11 5c-22 0 -28 -17 -28 -34c0 -13 3 -25 7 -30c4 -6 12 -10 21 -10c11 0 19 7 24 17z" />
    <glyph glyph-name="d" unicode="d" 
d="M255 540h-35v85h35v-85zM480 540h-35v85h35v-85zM502 575h23c27 0 50 -23 50 -50v-300c0 -28 -23 -50 -50 -50h-350c-28 0 -50 22 -50 50v300c0 27 22 50 50 50h22v-50h80v50h145v-50h80v50zM175 425v-200h350v200h-350z" />
    <glyph glyph-name="e" unicode="e" horiz-adv-x="500" 
d="M213 533l13 -19c-40 -32 -60 -58 -60 -81c0 -4 1 -8 3 -10c3 -6 5 -6 12 -9c29 -11 49 -38 49 -71c0 -40 -32 -75 -74 -75c-38 0 -75 29 -75 81c0 58 48 128 132 184zM401 533l12 -19c-39 -32 -59 -59 -59 -81c0 -4 1 -8 3 -10c3 -6 6 -6 13 -9c30 -11 49 -38 49 -71
c0 -40 -31 -75 -74 -75c-39 0 -76 30 -76 81c0 58 49 127 132 184z" />
    <glyph glyph-name="f" unicode="f" 
d="M441 517l34 12c-7 0 -15 0 -25 -1c-21 -1 -90 -11 -150 -31c-58 -20 -140 -70 -194 -136c-2 12 -2 24 -2 32c0 161 142 229 308 229c62 0 196 -12 218 -36c1 -1 1 -3 1 -4s0 -1 -3 -2c-59 -32 -105 -94 -124 -144s-53 -113 -95 -141c-29 -21 -65 -30 -103 -30
c-37 0 -79 8 -126 26c-26 -30 -49 -63 -67 -104c-1 -7 -8 -9 -13 -9c-4 0 -11 2 -14 4c-12 6 -18 11 -18 18c0 1 1 4 1 6c35 79 110 160 184 206c72 49 145 88 188 105z" />
    <glyph glyph-name="g" unicode="g" 
d="M350 633c64 0 123 -25 165 -68s68 -100 68 -165c0 -64 -26 -124 -68 -165c-42 -42 -101 -68 -165 -68c-65 0 -122 26 -165 68c-21 21 -38 46 -50 75c-12 28 -18 58 -18 90c0 65 26 122 68 165c43 43 100 68 165 68zM396 445h-7c0 3 -1 6 -2 8c-3 5 -3 8 -3 10v1
c0 3 2 5 5 7s5 8 5 11c0 4 2 10 4 19c3 8 9 20 19 25c11 5 24 10 36 10c6 2 12 2 18 2c-12 10 -23 19 -37 26c-5 0 -11 1 -14 2c-6 2 -12 3 -17 3c-4 0 -8 -1 -11 -2c-4 -1 -8 -3 -10 -6c-6 -2 -10 -6 -15 -6c-3 -1 -6 -2 -10 -2c-24 0 -49 11 -67 21
c-20 -7 -39 -17 -56 -30c3 0 6 1 9 1s6 0 8 -1c6 0 11 -3 12 -8c4 -10 14 -18 22 -24c2 -1 3 -1 6 -2c1 0 3 -1 6 -4h1s1 -1 2 -1l5 -1c3 1 7 0 9 -2c4 -3 7 -4 12 -10c2 -1 3 -3 5 -6c-2 -4 -3 -7 -6 -11l-4 -4c-2 -3 -4 -3 -6 -5h1c0 -3 0 -4 -2 -5c-3 -2 -6 -2 -9 -2
l-6 -1c-2 0 -3 -1 -4 -2c0 0 0 -2 -1 -2s-3 -1 -4 -2c-2 -2 -3 -7 -4 -11c-1 -2 -1 -4 -2 -5c1 -5 1 -12 1 -17v-5c0 -7 -3 -11 -6 -12h-2c-3 0 -7 2 -14 5c-4 2 -7 5 -12 8c2 -3 2 -6 4 -10c0 0 0 -2 1 -4c1 0 2 0 3 1h3c2 0 4 -4 2 -6l-1 -2v-2l3 -2c2 -1 3 -3 4 -3h2
c0 -1 0 -1 1 -1c4 0 8 1 13 1h7c8 0 16 -1 24 -3c5 -2 10 -5 14 -12c10 -9 22 -16 29 -21c9 -5 14 -10 14 -17c0 -12 -2 -28 -3 -33c-1 -7 -15 -18 -27 -26c-6 -5 -9 -9 -13 -18c-1 -3 -2 -7 -2 -12c-2 -5 -4 -8 -5 -12c-3 -4 -4 -7 -6 -10c-1 -4 -2 -7 -3 -9
c12 -2 23 -3 35 -3c39 0 92 13 136 61c33 33 50 78 51 124l-18 -11c-4 1 -7 1 -8 1c-3 0 -6 -2 -6 -4l8 -3c2 -1 2 -2 4 -2v-2c0 -3 -1 -5 -3 -9l-3 -6l-8 -6l-2 -4v-4c-1 -1 -1 -3 -1 -4c0 -5 -4 -12 -6 -18v-7c-1 -2 -2 -4 -2 -7c-2 -1 -2 -3 -3 -6l-3 -4
c0 -2 -1 -4 -1 -7c-1 -8 -5 -16 -12 -23c-8 -9 -14 -13 -20 -13h-2c-7 1 -10 10 -10 15c0 0 0 2 -1 3l-2 2c-1 1 -1 4 -2 6c-2 3 -3 8 -5 12s-3 8 -2 15v4c1 4 2 8 2 12c0 3 -1 6 -3 10l-1 2c-4 7 -5 11 -2 18c0 0 -1 1 -4 2c-2 0 -7 1 -14 1h-6c-15 0 -23 9 -27 26
c-1 2 -1 5 -1 8c0 8 2 16 7 23v3v5c4 0 5 3 7 4l2 5c5 0 9 0 13 1c11 3 21 4 31 3c6 0 8 -1 11 -2c5 -3 13 -8 19 -11l14 10c-5 11 -11 16 -15 19c-1 1 -3 1 -5 3c-2 0 -3 -2 -5 -2c-3 -1 -7 -4 -10 -8l-33 4c-4 -4 -9 -5 -13 -5zM266 361v7c-1 2 -2 3 -3 3c-3 1 -4 4 -6 4
c-2 3 -4 4 -6 5c-6 4 -12 6 -18 7c-7 2 -14 5 -20 7c-5 2 -14 6 -22 12c-10 7 -19 15 -24 25c-2 -11 -3 -21 -3 -31c0 -7 1 -14 1 -21c4 -35 20 -78 54 -113c17 -18 37 -31 61 -41c0 6 0 12 1 19c2 13 3 30 4 40c0 4 0 9 1 10c0 4 -1 8 -5 14l-2 5c-6 9 -13 19 -13 33
c-1 8 -1 12 0 15z" />
    <glyph glyph-name="h" unicode="h" 
d="M350 537l31 30c25 22 55 32 87 32c34 0 63 -10 87 -32c26 -25 40 -55 40 -89s-14 -66 -40 -88l-205 -189l-206 189c-26 22 -40 54 -40 88s14 64 40 89c25 22 54 32 88 32c32 0 61 -10 85 -32z" />
    <glyph glyph-name="i" unicode="i" 
d="M351 630c126 0 229 -104 229 -231c0 -126 -103 -229 -231 -229c-126 0 -229 103 -229 231c0 126 103 229 231 229zM329 516v-3c0 -17 12 -27 32 -27c25 0 42 18 42 38c0 19 -10 28 -30 28c-28 0 -44 -17 -44 -36zM361 321l21 80c3 11 5 21 5 28c0 13 -5 19 -15 19
c-20 0 -66 -20 -103 -50l8 -15c15 12 28 18 38 18c2 0 2 -2 2 -5s0 -7 -2 -13l-19 -74c-3 -12 -4 -21 -4 -29c0 -16 7 -25 21 -25c20 0 60 19 95 54l-9 11c-16 -12 -28 -18 -36 -18c-2 0 -3 3 -3 7c0 3 0 8 1 12z" />
    <glyph glyph-name="idieresis" unicode="&#xef;" 
d="M410 650c32 0 51 -21 51 -49c0 -33 -30 -63 -67 -63c-31 0 -50 18 -50 48c0 29 25 64 66 64zM248 366l-13 22c60 52 135 87 170 87c16 0 25 -11 25 -33c0 -12 -3 -28 -8 -48l-35 -134c-2 -9 -3 -16 -3 -22s2 -10 6 -10c14 0 34 10 60 30l15 -20
c-57 -57 -125 -88 -158 -88c-23 0 -34 14 -34 41c0 13 2 28 7 47l30 127c2 10 4 16 4 21c0 6 -2 8 -6 8c-5 0 -14 -4 -25 -9c-14 -6 -26 -12 -35 -19z" />
    <glyph glyph-name="j" unicode="j" 
d="M349 558h10c2 -1 4 -1 4 -1c19 32 53 54 92 54c58 0 106 -48 106 -106c0 -39 -22 -73 -55 -92c0 0 0 -2 1 -4v-8c0 -88 -70 -158 -158 -158c-32 0 -61 9 -88 26l-122 -80l81 122c-19 27 -28 57 -28 90c0 86 71 157 157 157zM455 558c-29 0 -52 -24 -52 -53
c0 -14 4 -26 15 -37c10 -10 23 -15 37 -15c29 0 52 23 52 52s-23 53 -52 53zM350 505h-1c-58 0 -105 -46 -105 -104c0 -59 47 -105 105 -105s105 46 105 104c-9 0 -17 1 -27 3l-42 -40c-10 -10 -22 -16 -36 -16c-30 0 -52 24 -52 54c0 13 5 26 15 36l41 42
c-2 10 -3 18 -3 26z" />
    <glyph glyph-name="k" unicode="k" 
d="M325 625h225c28 0 50 -23 50 -50v-150c0 -28 -22 -50 -50 -50h-25v-75l-75 75h-119c-36 0 -56 20 -56 56v144c0 27 23 50 50 50zM245 500v-70c0 -55 30 -85 85 -85h95v-45c0 -28 -22 -50 -50 -50h-125l-75 -75v75h-25c-27 0 -50 22 -50 50v150c0 27 23 50 50 50h95z" />
    <glyph glyph-name="l" unicode="l" 
d="M351 332l-63 146c-6 13 -8 27 -8 41c0 55 45 101 99 101c56 0 102 -46 102 -101c0 -13 -3 -26 -8 -39l-58 -136l20 4l106 -20l63 -148l-137 27l-131 -27l-132 27l-137 -27l63 148l104 20l102 -20zM379 569c-26 0 -49 -23 -49 -50c0 -28 23 -51 49 -51c29 0 52 23 52 51
c0 27 -23 50 -52 50zM410 335l-31 -72l-24 60l-19 -5v-3l-5 5l-29 5l34 -32v-23l-62 61l-28 6l90 -89v-23l-105 105l2 9l-85 -18l-47 -122l107 22l3 16l21 -21l29 -5l-46 45l4 19l69 -69l28 -7l-93 95l4 18l109 -110v-7l127 26l14 -2l-16 15l-6 29l50 -50l28 -6l-85 85
l-6 28l119 -119l9 -2l-9 26l-113 112l-10 2zM546 261l-14 36l-27 28l-29 7z" />
    <glyph glyph-name="m" unicode="m" 
d="M497 229l-19 -33c-37 -18 -89 -38 -136 -38c-126 0 -227 99 -227 226c0 140 100 258 248 258c123 0 217 -85 221 -199s-47 -171 -132 -171c-29 0 -48 19 -59 57c-28 -38 -55 -57 -84 -57c-49 0 -80 30 -80 101c0 83 56 155 157 155c28 0 57 -9 76 -19l-14 -124
c-2 -11 -3 -21 -3 -29c0 -26 9 -37 24 -37c44 0 62 33 62 98c0 115 -57 178 -167 178s-186 -81 -186 -199c0 -130 64 -200 181 -200c38 0 110 19 138 33zM398 471h-29c-45 0 -72 -26 -72 -88c0 -32 8 -54 30 -54c28 0 55 28 63 76z" />
    <glyph glyph-name="n" unicode="n" 
d="M196 564l7 10c14 13 23 16 26 16c4 0 9 -1 11 -3l68 -69c4 -3 5 -7 5 -12c0 -7 -5 -16 -15 -24c-5 -4 -9 -7 -12 -11zM263 449v-4c0 -9 8 -21 23 -35c20 -31 40 -53 56 -71c28 -19 42 -29 50 -29c4 0 7 0 8 2l92 -90c-11 -9 -25 -12 -43 -12c-29 0 -58 9 -89 28
c-42 22 -74 47 -97 74c-32 32 -57 62 -75 98c-20 33 -30 62 -30 87c0 20 5 35 14 43zM423 335l9 9c5 6 9 10 14 13c6 3 10 5 11 5c5 0 9 -2 12 -5l68 -68c3 -3 5 -7 5 -12c0 -6 -3 -11 -9 -17l-10 -9c-3 -2 -4 -5 -9 -7z" />
    <glyph glyph-name="o" unicode="o" 
d="M350 540c62 0 122 -18 159 -43s67 -55 81 -75c6 -10 10 -18 10 -22s-4 -12 -10 -22c-14 -20 -44 -50 -81 -75s-97 -43 -159 -43c-61 0 -122 18 -159 43s-68 55 -81 75c-7 10 -10 18 -10 22s3 12 10 22c13 20 44 50 81 75s98 43 159 43zM350 508c-61 0 -112 -49 -112 -108
c0 -60 49 -108 112 -108c61 0 111 48 111 108c0 59 -49 108 -111 108zM350 454c31 0 55 -25 55 -54s-24 -54 -55 -54c-15 0 -28 5 -39 16s-17 23 -17 38c0 29 25 54 56 54z" />
    <glyph glyph-name="p" unicode="p" 
d="M154 587h393c16 0 27 -13 27 -28v-318c0 -15 -11 -28 -27 -28h-393c-16 0 -28 13 -28 28v318c0 15 12 28 28 28zM163 549v-298h375v298h-375zM239 512c20 0 38 -16 38 -39c0 -19 -18 -36 -38 -36c-21 0 -38 17 -38 36c0 23 17 39 38 39zM500 390v-102h-299v25l67 89
l46 -39l86 130z" />
    <glyph glyph-name="q" unicode="q" 
d="M341 627h6c125 0 226 -98 230 -221v-6c0 -123 -99 -226 -221 -227h-12c-117 0 -221 100 -221 227c0 123 98 225 218 227zM386 390l14 8c30 27 40 33 40 64c0 51 -41 76 -97 76c-36 0 -79 -17 -83 -85v-3h54v3c0 19 10 39 33 38c29 0 35 -15 35 -32c0 -11 -8 -25 -16 -29
l-5 -2l-1 -4c-14 -4 -20 -10 -26 -14c-4 -2 -7 -9 -9 -14c-3 -6 -5 -17 -7 -36v-5h52v2c0 3 1 9 3 15c2 5 5 10 13 18zM341 328h-1c-15 0 -28 -14 -28 -35c0 -16 12 -29 28 -31h1c24 0 37 13 38 32c0 21 -10 33 -38 34z" />
    <glyph glyph-name="r" unicode="r" 
d="M275 455l123 75c0 2 -1 5 -1 11c0 38 32 70 70 70c39 0 70 -31 70 -69c0 -40 -31 -72 -70 -72c-15 0 -29 5 -43 14l-122 -74s1 -4 1 -9c0 -6 -1 -11 -1 -11l122 -76c13 10 29 16 44 16c18 0 35 -7 49 -21s20 -31 20 -50c0 -39 -31 -70 -70 -70c-38 0 -70 31 -70 70
c0 6 1 9 1 11l-123 74c-13 -10 -27 -14 -42 -14c-19 0 -37 6 -49 20c-15 14 -21 30 -21 50c0 39 31 70 70 70c16 0 30 -4 42 -15z" />
    <glyph glyph-name="s" unicode="s" 
d="M154 587h393c16 0 27 -13 27 -28v-318c0 -15 -11 -28 -27 -28h-393c-16 0 -28 13 -28 28v318c0 15 12 28 28 28zM163 549v-298h375v298h-375zM273 442l92 59c0 3 1 4 1 -3v-204s-1 0 -1 1l-92 56c-3 3 -7 4 -14 4h-33c-5 0 -9 3 -9 9v64c0 6 4 10 9 10h33c7 0 11 1 14 4z
M446 472l11 12c26 -25 38 -54 38 -87c0 -35 -12 -64 -38 -89l-11 12c22 22 34 47 34 77c0 29 -12 54 -34 75zM413 442l11 9c16 -13 24 -31 24 -54s-8 -41 -24 -56l-11 11c13 11 19 25 19 45c0 19 -6 33 -19 45zM381 409l11 12c7 -7 11 -16 11 -24c0 -9 -4 -18 -11 -25
l-11 15c4 0 5 0 5 10c0 9 -1 10 -5 12z" />
    <glyph glyph-name="t" unicode="t" 
d="M536 432l-202 -200c-22 -22 -47 -34 -74 -34c-28 0 -52 9 -71 29c-18 19 -28 42 -28 67s10 51 33 77c9 10 40 42 93 94c53 53 89 88 109 107c16 16 33 25 52 25c6 0 12 -1 19 -3c23 -6 44 -27 49 -50c2 -7 3 -13 3 -19c0 -19 -8 -37 -23 -53l-193 -191
c-11 -13 -23 -18 -35 -18c-3 0 -5 -1 -8 -1c-10 0 -18 4 -25 11c-7 6 -10 15 -10 26c0 13 5 28 18 41l135 135c4 4 7 6 10 6c4 0 7 -2 10 -6c3 -3 5 -7 5 -10s-2 -6 -5 -10l-135 -136c-8 -7 -12 -13 -12 -19c0 -2 1 -5 3 -7c3 -2 6 -3 10 -3c6 0 12 3 19 11l192 191
c11 12 16 23 16 35c0 3 0 6 -1 9c-6 19 -23 31 -41 31c-11 0 -23 -4 -33 -14l-201 -201c-18 -20 -26 -40 -26 -58s8 -33 21 -46c13 -14 29 -22 47 -22s38 8 57 25l200 201c3 3 7 4 11 4c8 0 15 -7 15 -14c0 -3 -1 -7 -4 -10z" />
    <glyph glyph-name="u" unicode="u" 
d="M350 624c124 0 223 -99 224 -223c-1 -124 -100 -223 -224 -224c-124 1 -224 100 -224 224c0 62 23 114 66 157c43 44 96 66 158 66zM350 565c-90 0 -164 -74 -164 -164s74 -164 164 -164s164 74 164 164c0 46 -16 84 -49 115c-31 33 -69 49 -115 49zM261 489h1
c24 24 53 37 88 37c34 0 64 -13 88 -37s37 -54 37 -88c0 -70 -56 -125 -125 -125c-70 0 -125 55 -125 125c-1 34 12 64 36 88zM350 465c-36 0 -65 -28 -65 -64c0 -19 6 -33 19 -46s27 -19 46 -19s32 6 46 19c12 13 18 27 19 46c-1 19 -7 32 -19 46c-14 12 -27 18 -46 18z
M350 433c10 0 17 -3 24 -8c5 -7 8 -14 8 -24c0 -19 -13 -32 -32 -32s-32 13 -32 32s13 32 32 32z" />
    <glyph glyph-name="v" unicode="v" 
d="M131 583h398c16 0 25 -9 25 -25v-316c0 -16 -9 -25 -25 -25h-398c-16 0 -25 9 -25 25v316c0 16 9 25 25 25zM137 552v-50h50v50h-50zM218 552v-304h224v304h-224zM473 552v-50h50v50h-50zM297 477l90 -66c5 -3 7 -7 7 -11s-2 -7 -7 -11l-90 -66c-3 -3 -7 -4 -9 -4
c-6 0 -9 5 -9 13v136c0 8 3 13 9 13c2 0 6 -1 9 -4zM137 470v-52h50v52h-50zM473 470v-52h50v52h-50zM137 386v-52h50v52h-50zM473 386v-52h50v52h-50zM137 298v-50h50v50h-50zM473 298v-50h50v50h-50z" />
    <glyph glyph-name="w" unicode="w" 
d="M370 287l58 277l64 -180h142v-27h-163l-35 96l-59 -278l-119 334l-25 -152h-167v27h142l40 241z" />
    <glyph glyph-name="x" unicode="x" 
d="M350 620c122 0 220 -98 220 -220s-98 -220 -220 -220c-61 0 -113 22 -156 65s-64 94 -64 155c0 122 98 220 220 220zM470 486l-35 35c-3 3 -7 3 -10 0l-70 -71c-3 -3 -8 -3 -11 0l-69 71c-3 3 -8 3 -11 0l-35 -35c-3 -4 -3 -8 1 -11l68 -70c4 -3 4 -7 0 -10l-68 -71
c-4 -3 -4 -7 0 -10l34 -35c3 -3 8 -3 11 0l69 71c3 3 8 3 11 0l70 -71c3 -3 7 -3 10 0l35 35c3 3 3 7 0 10l-69 71c-4 3 -4 7 0 10l69 70c3 3 3 7 0 11z" />
    <glyph glyph-name="y" unicode="y" horiz-adv-x="350" 
d="M191 222l-16 -22c-4 4 -8 10 -13 17c-12 16 -47 67 -68 110c-22 43 -44 104 -44 148c0 69 56 125 125 125c70 0 125 -56 125 -125s-36 -153 -109 -253zM175 541c-39 0 -68 -29 -68 -68c0 -37 31 -67 68 -67s67 30 67 67s-30 68 -67 68z" />
    <glyph glyph-name="z" unicode="z" 
d="M82 405h69c3 128 107 231 235 231s233 -105 233 -236s-105 -236 -233 -236c-54 0 -102 17 -145 50l41 43c30 -22 65 -34 104 -34c98 0 174 79 174 177s-76 177 -174 177c-95 0 -174 -77 -177 -172h82l-105 -116zM402 407l75 -75l-25 -24l-85 85v137h35v-123z" />
    <glyph glyph-name="uniAC00" unicode="&#xac00;" horiz-adv-x="600" 
d="M128 494l3 1c-3 16 -7 31 -7 46c0 16 5 34 21 55c15 19 42 29 80 29c75 0 103 -50 100 -86l-7 -44c6 -2 10 -10 10 -21c-1 -16 -5 -26 -12 -30s-11 -8 -12 -12c-2 -16 -8 -28 -15 -37c-8 -9 -12 -16 -12 -24c0 -41 19 -60 82 -82c60 -23 91 -43 91 -61v-53h-400v100
c6 2 13 5 23 9c10 3 15 5 17 5c62 23 82 41 82 82c0 8 -4 16 -11 24c-8 8 -14 21 -16 37c0 4 -4 8 -11 12c-8 4 -11 14 -13 30c0 10 4 17 7 20zM475 425h75v-50h-75v-75h-50v75h-75v50h75v75h50v-75z" />
    <glyph glyph-name="uniAC01" unicode="&#xac01;" horiz-adv-x="600" 
d="M128 494l3 1c-3 16 -7 31 -7 46c0 16 5 34 21 55c15 19 42 29 80 29c75 0 103 -50 100 -86l-7 -44c6 -2 10 -10 10 -21c-1 -16 -5 -26 -12 -30s-11 -8 -12 -12c-2 -16 -8 -28 -15 -37c-8 -9 -12 -16 -12 -24c0 -41 19 -60 82 -82c60 -23 91 -43 91 -61v-53h-400v100
c6 2 13 5 23 9c10 3 15 5 17 5c62 23 82 41 82 82c0 8 -4 16 -11 24c-8 8 -14 21 -16 37c0 4 -4 8 -11 12c-8 4 -11 14 -13 30c0 10 4 17 7 20zM550 375h-200v50h200v-50z" />
    <glyph glyph-name="uniAC02" unicode="&#xac02;" horiz-adv-x="846" 
d="M127 494l3 1c-3 16 -7 31 -7 46c0 16 5 34 21 55c15 19 42 29 80 29c75 0 103 -50 100 -86l-7 -44c6 -2 10 -10 10 -21c-1 -16 -5 -26 -12 -30s-11 -8 -12 -12c-2 -16 -8 -28 -15 -37c-8 -9 -12 -16 -12 -24c0 -41 19 -60 82 -82c60 -23 91 -43 91 -61v-53h-400v100
c6 2 14 5 23 9c10 3 15 5 17 5c62 23 82 41 82 82c0 8 -4 16 -11 24c-8 8 -14 21 -16 37c0 4 -4 8 -11 12c-8 4 -11 14 -13 30c0 10 5 17 7 20zM376 425h3c-3 13 -5 24 -5 37c0 12 3 26 16 43c12 15 32 22 63 22c58 0 80 -39 78 -67l-5 -35c4 -1 7 -7 8 -16
c-2 -13 -5 -20 -10 -24c-5 -3 -9 -5 -9 -9c-3 -12 -6 -21 -13 -30c-6 -6 -9 -11 -9 -18c0 -31 16 -47 65 -64c47 -18 71 -33 71 -48v-41h-150v53c0 18 -22 48 -77 69c6 8 9 13 9 31c0 7 -3 12 -9 18c-6 8 -10 18 -12 30c0 4 -3 6 -9 9s-8 11 -9 24c0 8 3 13 4 16zM722 425
h75v-50h-75v-75h-50v75h-75v50h75v75h50v-75z" />
    <glyph glyph-name="uniAC03" unicode="&#xac03;" horiz-adv-x="846" 
d="M127 494l3 1c-3 16 -7 31 -7 46c0 16 5 34 21 55c15 19 42 29 80 29c75 0 103 -50 100 -86l-7 -44c6 -2 10 -10 10 -21c-1 -16 -5 -26 -12 -30s-11 -8 -12 -12c-2 -16 -8 -28 -15 -37c-8 -9 -12 -16 -12 -24c0 -41 19 -60 82 -82c60 -23 91 -43 91 -61v-53h-400v100
c6 2 14 5 23 9c10 3 15 5 17 5c62 23 82 41 82 82c0 8 -4 16 -11 24c-8 8 -14 21 -16 37c0 4 -4 8 -11 12c-8 4 -11 14 -13 30c0 10 5 17 7 20zM376 425h3c-3 13 -5 24 -5 37c0 12 3 26 16 43c12 15 32 22 63 22c58 0 80 -39 78 -67l-5 -35c4 -1 7 -7 8 -16
c-2 -13 -5 -20 -10 -24c-5 -3 -9 -5 -9 -9c-3 -12 -6 -21 -13 -30c-6 -6 -9 -11 -9 -18c0 -31 16 -47 65 -64c47 -18 71 -33 71 -48v-41h-150v53c0 18 -22 48 -77 69c6 8 9 13 9 31c0 7 -3 12 -9 18c-6 8 -10 18 -12 30c0 4 -3 6 -9 9s-8 11 -9 24c0 8 3 13 4 16zM797 375
h-200v50h200v-50z" />
    <glyph glyph-name="uniAC04" unicode="&#xac04;" horiz-adv-x="510" 
d="M461 249l-59 58l-205 -205l-30 31l205 205l-59 58h148v-147zM225 280h-117v-237h235v118l59 58v-235h-353v354h236z" />
    <glyph glyph-name="uniAC05" unicode="&#xac05;" horiz-adv-x="250" 
d="M250 386l-141 -141l-109 110l141 140h109v-109zM203 471c-6 0 -11 -2 -15 -6c-5 -5 -7 -10 -7 -16c0 -7 2 -12 7 -16c4 -4 9 -7 15 -7s12 3 16 7c5 4 7 9 7 16c0 6 -2 11 -7 16c-4 4 -10 6 -16 6z" />
    <glyph glyph-name="uniAC06" unicode="&#xac06;" horiz-adv-x="598" 
d="M101 593h395c25 0 53 -24 53 -49c0 -31 -28 -53 -53 -53h-395c-30 0 -52 23 -52 53c0 25 19 49 52 49zM101 451h395c25 0 53 -24 53 -49c0 -30 -28 -53 -53 -53h-395c-30 0 -52 24 -52 53c0 25 19 49 52 49zM101 309h395c25 0 53 -23 53 -49c0 -30 -28 -52 -53 -52h-395
c-30 0 -52 23 -52 52c0 26 19 49 52 49z" />
    <glyph glyph-name="uniAC07" unicode="&#xac07;" horiz-adv-x="363" 
d="M126 526v2c-1 6 -4 11 -6 13c-1 1 -2 2 -4 3c-3 1 -6 1 -9 1c0 -1 1 -3 1 -4c0 -4 -3 -7 -6 -9c-1 0 -2 -1 -3 -1c-4 0 -8 3 -9 8c0 1 -1 2 -1 3c0 4 3 7 6 9c3 1 6 2 9 2c4 0 11 -3 17 -9c4 -6 6 -9 8 -16c9 8 20 11 30 10c0 4 -1 5 -1 6c0 6 0 14 3 20c3 4 6 7 9 9
c2 0 4 1 7 1c4 0 9 -3 11 -8v-2c0 -5 -2 -9 -7 -10h-2c-5 0 -9 3 -10 9c-2 -1 -5 -3 -6 -7c-2 -2 -3 -6 -3 -10c1 -2 1 -5 2 -8c18 -2 32 -15 38 -32c8 -3 16 -6 24 -11l36 65c3 5 11 7 17 4s9 -11 5 -17l-39 -68c13 -13 23 -28 29 -45l73 20h3c6 0 10 -4 12 -9
c1 -2 1 -3 1 -4c0 -3 -3 -9 -9 -12l-74 -19v-12c0 -12 -1 -25 -4 -41l72 -40c6 -3 8 -11 4 -17c-3 -6 -11 -8 -17 -5l-65 38c-10 -36 -22 -56 -35 -61c-2 -1 -4 -1 -5 -1c-6 0 -12 3 -17 11c0 -14 -5 -21 -14 -21c-6 0 -12 2 -20 7c-11 5 -24 15 -37 28l-36 -64
c-2 -3 -5 -5 -8 -6h-4c-4 0 -9 2 -11 8c-1 4 -1 7 1 10l40 71c-14 15 -24 30 -30 43l-73 -21h-3c-6 0 -11 3 -13 9c-1 1 -1 2 -1 4c0 4 2 9 10 11l72 20c-1 8 -1 16 -1 24c0 11 0 20 3 31l-68 38c-6 4 -8 11 -4 17c3 6 10 8 16 5l65 -37c5 10 10 18 18 25c-1 4 -1 7 -1 11
c0 12 5 22 14 31z" />
    <glyph glyph-name="uniAC08" unicode="&#xac08;" horiz-adv-x="503" 
d="M138 642l19 -18c1 -3 1 -6 0 -8l-94 -93c-2 -2 -6 -2 -7 0l-54 53c-2 2 -2 5 0 8l18 17c3 2 6 2 7 0l29 -28c1 -2 5 -2 7 0l68 69c2 1 5 1 7 0zM229 626h230c25 0 44 -21 44 -42c0 -27 -19 -46 -44 -46h-230c-13 0 -24 4 -33 12c-9 10 -13 20 -13 34c0 21 20 42 46 42z
M138 461l19 -18c1 -3 1 -6 0 -8l-94 -93c-2 -3 -6 -3 -7 0l-54 53c-2 2 -2 5 0 7l18 18c3 2 6 2 7 0l29 -28c1 -2 5 -2 7 0l68 69c2 1 5 1 7 0zM229 447h230c25 0 44 -22 44 -45c0 -24 -19 -45 -44 -45h-230c-13 0 -24 5 -33 15c-9 9 -13 18 -13 30c0 23 20 45 46 45z
M68 248l40 41c0 1 0 1 1 1c2 0 4 0 6 -1l17 -19c2 -1 2 -3 2 -6h-2l-40 -40l42 -42c0 -2 0 -3 -2 -5l-17 -19c-2 -1 -4 -1 -6 -1c-1 0 -1 1 -1 1l-40 40l-41 -40s0 -1 -1 -1c-2 0 -3 0 -5 1l-18 19c-2 2 -2 3 -2 5l42 42l-40 40h-2c0 3 0 5 2 6l18 19c2 1 3 1 5 1
c1 0 1 0 1 -1zM229 268h230c25 0 44 -22 44 -44c0 -25 -19 -46 -44 -46h-230c-13 0 -24 4 -33 14c-9 8 -13 19 -13 32c0 22 20 44 46 44z" />
    <glyph glyph-name="uniAC09" unicode="&#xac09;" horiz-adv-x="591" 
d="M190 600h212c5 -1 18 -10 18 -25h-249c0 15 11 24 19 25zM140 550h305c2 0 4 0 7 -1c6 0 18 -9 18 -24v-25h-349v25c0 15 11 23 19 25zM505 515l14 -15c2 -1 3 -3 7 -6l11 -13c3 -5 3 -9 3 -17c0 -4 0 -9 -1 -14c-4 -19 -17 -95 -29 -167c-2 -12 -4 -22 -5 -31
c-6 -44 -8 -52 -35 -52h-349c-17 0 -27 8 -30 25c-2 9 -8 46 -19 112s-18 104 -20 113c-1 9 -2 15 -2 18c0 4 1 8 5 13c3 5 4 6 9 12l22 22v-40h419v40zM360 415v-40h-129v40h-35v-50c0 -17 8 -25 25 -25h149c15 0 24 10 24 18l1 7v50h-35z" />
    <glyph glyph-name="uniAC0A" unicode="&#xac0a;" horiz-adv-x="518" 
d="M259 610c116 0 210 -94 210 -210s-94 -210 -210 -210c-58 0 -108 21 -149 62s-61 90 -61 148c0 116 94 210 210 210zM321 562l-32 -39c-9 2 -19 3 -29 3s-19 -1 -29 -3l-32 39c-9 -3 -17 -7 -26 -12s-15 -10 -23 -16l18 -48c-15 -15 -23 -31 -29 -50l-50 -8
c-2 -9 -3 -18 -3 -27c0 -10 1 -19 2 -28l51 -9c4 -9 7 -18 11 -26s11 -16 19 -23l-19 -49c14 -11 31 -21 48 -28l33 39c9 -1 17 -1 25 -1c11 0 21 0 32 2l32 -39c9 3 18 7 26 12c9 5 17 10 23 16l-17 48c13 15 22 31 28 49l50 9c2 8 3 17 3 26c0 10 -1 20 -3 30l-50 8
c-3 9 -6 19 -12 27c-4 8 -10 16 -16 22l17 49c-14 11 -31 20 -48 27zM228 455c10 6 21 9 31 9c22 0 43 -12 55 -32c5 -10 8 -20 8 -31c0 -22 -11 -44 -31 -55c-10 -5 -20 -8 -31 -8c-22 0 -43 11 -55 31c-6 10 -8 20 -8 30c0 6 1 12 2 18c5 16 14 30 29 38z" />
    <glyph glyph-name="uniAC0B" unicode="&#xac0b;" horiz-adv-x="537" 
d="M95 593h347c8 0 17 -3 23 -10c5 -6 9 -13 9 -23v-321c0 -8 -4 -16 -9 -23c-6 -5 -15 -8 -23 -8h-347c-9 0 -17 3 -23 8c-6 7 -9 15 -9 23v321c0 10 3 17 9 23c6 7 14 10 23 10zM442 567h-347c-4 0 -7 -2 -7 -7v-321c0 -4 3 -7 7 -7h347c4 0 7 3 7 7v321c0 5 -3 7 -7 7z
M307 541h25c5 0 7 -1 10 -4s3 -5 3 -8v-52c0 -4 0 -7 -3 -9c-3 -3 -5 -4 -10 -4h-25c-4 0 -7 1 -9 4c-2 2 -4 5 -4 9v52c0 3 2 5 4 8s5 4 9 4zM281 490h-167v26h167v-26zM422 490h-63v26h63v-26zM204 439h25c5 0 8 -2 10 -5c2 -2 3 -4 3 -8v-53c0 -3 -1 -6 -3 -8
c-2 -3 -5 -4 -10 -4h-25c-4 0 -6 1 -9 4c-3 2 -3 5 -3 8v53c0 4 0 6 3 8c3 3 5 5 9 5zM179 387h-65v25h65v-25zM422 387h-166v25h166v-25zM281 336h26c4 0 7 -3 10 -5c2 -2 2 -4 2 -8v-52c0 -3 0 -7 -2 -9c-3 -3 -6 -3 -10 -3h-26c-3 0 -6 0 -9 3c-2 2 -4 6 -4 9v52
c0 4 2 6 4 8c3 2 6 5 9 5zM256 284h-142v26h142v-26zM422 284h-90v26h90v-26z" />
    <glyph glyph-name="uniAC0C" unicode="&#xac0c;" horiz-adv-x="483" 
d="M93 493h58c8 0 12 2 16 4c3 1 7 4 8 9c0 1 1 2 1 3c0 4 -3 11 -8 20c-3 7 -7 15 -9 22c-3 7 -2 14 -2 21c1 8 5 11 14 17c8 5 19 5 34 5c16 0 26 0 37 -5c7 -6 15 -9 14 -16c0 -8 0 -14 1 -22c-3 -7 -11 -14 -14 -22c-4 -11 -8 -20 -6 -23c2 -5 4 -8 8 -11
c2 -1 12 -2 12 -2h61c7 0 12 -3 17 -10c4 -1 8 -9 8 -15v-71c0 -8 1 -12 1 -17c3 -3 6 -8 12 -8c1 0 2 -1 4 -1c4 0 9 3 17 8c7 5 17 7 23 9c8 2 15 3 22 3c7 -2 13 -6 17 -14c4 -9 5 -20 5 -37c0 -12 -1 -26 -5 -34c-3 -9 -11 -11 -16 -12c-8 0 -16 0 -23 1
c-7 2 -15 5 -23 10c-9 5 -16 8 -21 8l-12 -10c-1 -3 -1 -8 -2 -14v-57v-2c0 -6 -3 -11 -7 -14c-5 -6 -10 -9 -16 -9h-61h-1c-3 0 -10 2 -12 4c-3 0 -5 6 -8 10c0 1 -1 2 -1 3c0 5 3 10 7 18c3 8 11 16 13 23c-1 6 0 15 0 22s-8 13 -14 15c-10 4 -21 7 -37 6
c-15 0 -27 -2 -35 -5c-9 -3 -13 -9 -12 -15c-1 -3 -1 -6 -1 -9c0 -5 1 -10 2 -14c2 -7 5 -14 9 -23c5 -7 8 -13 8 -18c0 -6 -5 -13 -9 -14s-8 -3 -16 -4h-58c-7 0 -13 4 -18 11c-3 2 -6 8 -7 14v237c1 6 3 14 7 15c6 7 12 10 18 10z" />
    <glyph glyph-name="uniAC0D" unicode="&#xac0d;" horiz-adv-x="538" 
d="M136 445l-34 12c-6 2 -8 7 -6 12c16 47 50 84 92 105c25 12 52 19 80 19c20 0 40 -3 60 -10c41 -14 74 -41 97 -78l47 23c4 2 7 3 9 3c7 0 10 -7 6 -16l-34 -101c-2 -9 -14 -13 -22 -11l-101 34c-7 3 -11 6 -11 10c0 3 4 7 10 10l46 23c-15 24 -38 42 -65 51
c-13 5 -27 7 -41 7c-20 0 -39 -5 -57 -13c-29 -14 -53 -41 -65 -74c-1 -5 -6 -7 -11 -6zM107 416l101 -34c7 -2 11 -5 11 -9s-4 -8 -10 -11l-46 -23c15 -23 37 -41 65 -51c13 -4 26 -6 39 -6c21 0 41 4 59 13c29 14 53 40 65 74c1 5 5 7 11 5l35 -11c5 -3 7 -7 5 -12
c-16 -48 -50 -85 -92 -105c-25 -12 -52 -19 -81 -19c-20 0 -40 3 -59 10c-41 13 -75 41 -97 78l-47 -23c-4 -2 -7 -3 -10 -3c-4 0 -7 3 -7 8c0 2 1 5 2 8l34 101c2 8 14 13 22 10z" />
    <glyph glyph-name="uniAC0E" unicode="&#xac0e;" horiz-adv-x="512" 
d="M224 504l66 12l-89 -127l15 90l-67 -13l90 127zM328 227l-102 51l-44 -70l7 87l223 183l-241 -173l-122 70l139 50l-13 -102l101 134l187 71z" />
    <glyph glyph-name="uniAC0F" unicode="&#xac0f;" horiz-adv-x="537" 
d="M445 269l-158 -80v80h-132v131h27v-105h105v237l105 53h-210v-79h-27v105h290v-342zM128 479h106v-52h-106v-53l-105 79l105 79v-53z" />
    <glyph glyph-name="exclam" unicode="!" horiz-adv-x="537" 
d="M228 527l-6 41c-2 12 -2 18 -2 27c0 33 20 51 49 51c40 0 65 -24 68 -58c0 -6 0 -17 -3 -25c0 -10 -2 -24 -6 -42c-1 -10 -4 -22 -7 -34c-3 -14 -6 -30 -8 -45c-10 -39 -22 -84 -41 -129h-9c-1 32 -7 63 -13 94c-2 13 -5 26 -7 39c-2 6 -3 14 -4 23c-2 9 -3 18 -5 27
c-4 19 -6 31 -6 31zM267 265c25 0 46 -23 46 -50c0 -36 -38 -61 -63 -61c-31 1 -52 26 -49 57c5 32 34 54 66 54z" />
    <glyph glyph-name="underscore" unicode="_" 
d="M537 554h-374c-16 0 -24 -8 -24 -24v-260c0 -16 9 -24 24 -24h374c16 0 24 9 24 24v260c0 16 -8 24 -24 24zM254 449l-66 26v31l99 -42v-29l-99 -45v35zM400 390v-20h-99v20h99z" />
    <glyph glyph-name="hyphen" unicode="-" horiz-adv-x="297" 
d="M5 434h283c1 0 2 0 4 -1c3 -2 4 -4 5 -7v-50c-1 -4 -2 -6 -5 -8h-284c-1 -1 -2 -1 -4 0c-3 2 -4 4 -4 8v50c0 4 1 6 5 8z" />
    <glyph glyph-name="less" unicode="&#x3c;" horiz-adv-x="550" 
d="M230 570v-97c103 0 182 -51 236 -152c16 -33 28 -63 34 -91c-57 102 -131 120 -270 120v-109l-180 167z" />
    <glyph glyph-name="lessequal" unicode="&#x2264;" horiz-adv-x="600" 
d="M231 503l-106 -94l106 -98v-70l-181 168l181 161v-67zM356 570v-97c69 0 123 -38 148 -85c25 -48 41 -100 44 -133l2 -25c-57 103 -102 120 -194 120v-109l-181 168z" />
    <glyph glyph-name="plus" unicode="+" horiz-adv-x="297" 
d="M124 548h50c2 -1 5 -1 7 -4l1 -4v-107h106c1 0 2 0 4 -1c3 -2 4 -4 5 -7v-50c-1 -4 -2 -6 -5 -8l-3 -1h-108v-107c1 -1 1 -2 0 -4c-2 -2 -4 -3 -8 -3h-51c-3 0 -5 1 -6 4c-2 2 -1 3 -1 4v107h-107c-1 -1 -2 -1 -4 0c-3 2 -4 4 -4 8v50c0 4 1 6 5 8l3 1h107v106
c0 1 1 2 1 3c1 4 5 5 8 5z" />
    <glyph glyph-name="uni2207" unicode="&#x2207;" horiz-adv-x="581" 
d="M44 634h492c6 0 12 -3 15 -8c3 -3 4 -7 4 -10s-1 -6 -4 -9l-243 -432c-5 -6 -11 -9 -18 -9c-9 0 -14 3 -18 9l-244 432c-1 3 -3 6 -3 9s2 6 3 10c4 5 10 8 16 8zM456 582h-331c-6 0 -9 -3 -13 -7c-1 -2 -2 -4 -2 -6s1 -4 2 -5l166 -292c2 -5 6 -7 12 -7c5 0 9 2 12 7
l165 292c4 3 4 7 0 11c-3 4 -6 7 -11 7z" />
    <glyph glyph-name="arrowboth" unicode="&#x2194;" horiz-adv-x="604" 
d="M273 445h-55v-118h101l58 -63h-177c-25 0 -45 20 -45 45v136h-55l86 91zM277 536h177c24 0 45 -20 45 -45v-136h55l-86 -91l-87 91h55v118h-101z" />
    <glyph glyph-name="arrowdown" unicode="&#x2193;" horiz-adv-x="631" 
d="M346 447l191 132c5 5 11 8 18 8c15 0 27 -12 27 -27c0 -7 -2 -13 -8 -18v-1l-236 -314c-5 -10 -12 -13 -23 -13c-10 0 -18 3 -23 13l-235 314v1c-6 5 -8 11 -8 18c0 15 12 27 27 27c7 0 13 -3 18 -8l193 -133c8 -5 18 -8 28 -8c11 0 21 4 31 9z" />
    <glyph glyph-name="arrowleft" unicode="&#x2190;" 
d="M177 423l315 236c5 5 11 8 19 8c14 0 26 -12 26 -27c0 -7 -2 -13 -8 -18v-1l-131 -191c-6 -9 -9 -20 -9 -30c0 -11 2 -20 7 -28v-1l133 -192v-1c6 -5 8 -11 8 -18s-2 -13 -8 -19c-5 -5 -12 -8 -18 -8c-8 0 -14 3 -19 8l-315 236c-9 5 -13 13 -13 23s4 18 13 23z" />
    <glyph glyph-name="arrowright" unicode="&#x2192;" 
d="M172 621v1c-6 5 -8 11 -8 18s2 13 8 19c5 5 11 8 18 8c8 0 14 -3 19 -8l315 -236c9 -5 13 -13 13 -23s-4 -18 -13 -23l-315 -236c-5 -5 -11 -8 -19 -8c-14 0 -26 12 -26 27c0 7 2 13 8 18v1l131 191c6 10 9 20 9 30c0 11 -3 20 -7 28v1z" />
    <glyph glyph-name="arrowup" unicode="&#x2191;" horiz-adv-x="631" 
d="M57 259l235 314c5 10 13 14 23 14c11 0 18 -4 23 -14l236 -314v-1c6 -4 8 -11 8 -18c0 -15 -12 -26 -27 -26c-7 0 -13 2 -18 7l-191 131c-10 7 -20 10 -31 10c-10 0 -20 -3 -28 -8l-193 -133c-5 -5 -11 -7 -18 -7c-8 0 -14 2 -19 7c-6 6 -8 12 -8 19s2 14 8 18v1z" />
    <glyph glyph-name="uni25BE" unicode="&#x25be;" horiz-adv-x="536" 
d="M73 510h388c7 0 12 -4 12 -10c0 -2 -1 -5 -4 -8l-200 -198c-3 -3 -8 -3 -11 0l-192 199c-2 2 -4 5 -4 8c0 5 4 9 11 9z" />
    <glyph glyph-name="uni2714" unicode="&#x2714;" horiz-adv-x="297" 
d="M259 512l34 -34c5 -4 5 -10 0 -14l-176 -176c-3 -4 -10 -4 -13 0l-101 101c-4 3 -4 9 0 12l35 35c4 4 9 4 12 0l54 -54c3 -3 10 -3 13 0l130 130c3 4 8 4 12 0z" />
    <glyph glyph-name="uni270E" unicode="&#x270e;" horiz-adv-x="598" 
d="M362 581l34 42c4 5 10 6 15 7c6 0 10 -1 13 -3l67 -57c6 -4 9 -9 9 -15c0 -4 -3 -9 -7 -14l-35 -42zM443 481l-211 -252l-95 83l209 251zM216 214l-118 -44l23 124z" />
    <glyph glyph-name="uni2715" unicode="&#x2715;" horiz-adv-x="250" 
d="M201 523l3 2c3 1 5 0 8 -2l36 -36c2 -3 3 -5 2 -8l-2 -3l-76 -76l76 -76l2 -3c1 -3 0 -5 -2 -8l-36 -36c-3 -2 -5 -3 -8 -1c-1 0 -2 0 -3 1l-76 76l-76 -76c-1 -1 -2 -1 -3 -1c-3 -2 -5 -1 -8 1l-36 36c-2 3 -3 5 -2 8l2 3l76 76l-76 76l-2 3c-1 3 0 5 2 8l36 36
c3 2 5 3 8 2l3 -2l76 -76z" />
    <glyph glyph-name="uniFFEE" unicode="&#xffee;" 
d="M518 202h-336c-69 0 -127 57 -127 127c0 56 37 103 88 120c2 46 40 86 89 86c14 0 29 -3 42 -11c27 45 76 74 131 74c84 0 152 -66 153 -150c51 -16 87 -63 87 -119c0 -70 -57 -127 -127 -127zM516 435v10c0 61 -51 110 -111 110c-47 0 -87 -29 -104 -71
c-4 -9 -12 -14 -20 -14c-6 0 -12 3 -16 7c-9 10 -21 15 -34 15c-12 0 -23 -4 -32 -13s-14 -20 -14 -34v-9c0 -2 1 -3 1 -5c0 -9 -7 -17 -18 -19c-41 -7 -71 -41 -71 -83c0 -47 39 -84 85 -84h131v74h-60l103 120l103 -120h-60v-74h119c46 0 85 37 85 84c0 40 -30 76 -69 83
c-11 2 -19 12 -18 23z" />
    <glyph glyph-name="uni270D" unicode="&#x270d;" 
d="M467 594l25 33c3 4 7 5 11 5c6 0 11 -2 16 -6l47 -41c5 -5 8 -9 8 -13c0 -3 -2 -6 -4 -10l-29 -33zM524 508l-166 -199l-76 67l165 199zM356 507h-173v-285h291v182l57 69v-251c0 -32 -25 -57 -57 -57h-291c-30 0 -56 25 -56 57v285c0 31 26 58 56 58h221zM339 294
l-94 -36l21 97z" />
    <glyph glyph-name="uniE01F" unicode="&#xe01f;" 
d="M336 578h49c14 0 29 -3 44 -7c8 -1 15 -3 23 -8c20 -10 32 -24 40 -42c2 -9 4 -18 4 -28c0 -22 -10 -40 -29 -54c-1 -1 -17 -10 -35 -18c53 -13 83 -46 83 -89c0 -11 -2 -24 -6 -37c-8 -21 -27 -42 -50 -53c-24 -10 -55 -16 -94 -15h-46c-14 1 -37 0 -70 -3h-8h-13
c-10 -1 -24 -2 -42 -2v22c2 1 7 1 16 3c10 1 20 4 29 8c2 3 4 7 5 11c1 8 2 23 2 45v114c0 3 -1 14 -1 33c0 25 -1 45 -1 62c-1 12 -2 21 -3 25c-1 2 -2 2 -4 2c-3 3 -8 4 -15 4c-4 0 -12 1 -27 3l-1 19zM312 468v-40c7 -2 16 -2 26 -2c55 0 83 19 83 67c0 18 -7 32 -20 44
c-13 11 -33 17 -60 17c-9 0 -18 -1 -31 -3c0 -7 1 -13 1 -18c1 -16 2 -31 2 -43c0 -8 -1 -16 -1 -22zM313 401v-136c0 -3 1 -7 2 -10c10 -5 24 -7 38 -7c16 0 32 3 46 9c25 12 37 39 37 68c0 18 -3 33 -11 45c-15 24 -35 34 -82 34c-12 0 -23 -1 -30 -3z" />
    <glyph glyph-name="uniE032" unicode="&#xe032;" 
d="M324 490l-91 -89l90 -90l-44 -41l-128 129l132 131zM549 401l-132 -131l-41 40l91 89l-90 90l44 41z" />
    <glyph glyph-name="uniE079" unicode="&#xe079;" 
d="M473 574v-2c-1 -1 -1 -2 -1 -2c-1 -2 -2 -6 -3 -12c-5 -2 -13 -4 -27 -7c-8 -2 -16 -5 -24 -7c-3 -8 -7 -29 -9 -40l-16 -71l-14 -73l-9 -36l-10 -55l-4 -10v-3c0 -1 0 -2 1 -3c13 -3 21 -5 29 -5c1 0 3 0 4 -1l11 -2v-4c-1 -2 -1 -3 -1 -3v-4v-2c-1 -3 -2 -4 -2 -4
c0 -2 0 -4 -1 -6h-5c-2 -1 -4 -1 -7 -1h-3h-3c-2 0 -3 1 -4 1c-4 0 -7 0 -10 1c-6 1 -14 2 -25 3h-47c-8 1 -23 0 -43 -3c-15 -1 -17 -1 -23 -1l5 19c1 1 2 1 4 2c3 1 10 2 14 3c8 2 17 5 28 9c5 7 8 15 10 24l6 32l14 62l3 15c2 17 6 30 9 41c3 10 4 14 4 15l8 37l3 15
l5 31l3 11v9c-8 4 -19 6 -35 7c-2 0 -5 0 -5 1h-5l5 24l76 -3h7c2 -1 4 -1 5 -1h6c13 0 30 1 51 2c17 2 19 2 25 2v-5z" />
    <glyph glyph-name="uniE159" unicode="&#xe159;" 
d="M391 429h-124c-9 13 -15 31 -15 50c0 24 9 48 31 68c22 17 49 25 85 25c20 0 38 -2 57 -7c5 -2 10 -3 17 -4c6 -17 9 -41 9 -72c-13 -1 -19 -1 -20 -1c-10 32 -34 61 -65 61c-32 0 -51 -20 -51 -46c0 -22 15 -40 45 -57zM521 385h-342v30h342v-30zM346 371h108
c6 -13 9 -27 9 -42c0 -61 -50 -101 -126 -101c-34 0 -62 6 -84 18c-10 12 -16 46 -16 82l19 1c11 -38 47 -78 86 -78c34 0 53 23 53 50s-16 49 -49 70z" />
    <glyph glyph-name="uniF034" unicode="&#xf034;" 
d="M501 593h3c1 0 3 -1 5 -1v-24v-35v-39c0 -5 0 -10 -1 -13c-4 -2 -7 -2 -10 -3c-2 0 -5 -1 -7 -2c-4 8 -9 19 -13 32c-5 14 -9 21 -9 23c-3 3 -5 4 -8 5c-1 2 -7 2 -14 2h-35h-8c-3 0 -6 0 -9 -2c-1 -7 -1 -13 0 -17v-249c0 -12 0 -22 2 -29c3 -1 7 -3 14 -5h5l13 -3
c4 -2 9 -4 12 -4c1 -4 1 -7 1 -9v-5v-3v-4h-9c-16 0 -29 0 -41 3c-12 1 -31 1 -61 1h-14l-28 -4h-11c-3 -1 -5 -1 -5 -1c0 2 0 4 -1 5c0 1 -1 2 -1 2v8c3 7 10 10 20 13c17 5 27 9 34 13c2 3 2 8 2 14c1 14 2 33 2 58c0 14 0 31 -1 50v108c-1 14 -1 27 -1 35v18
c0 3 -2 5 -5 5c-3 2 -8 2 -16 2h-32c-30 0 -33 -3 -59 -44c-5 -6 -8 -9 -10 -9l-14 10c6 13 13 38 20 75c2 5 4 10 4 14s1 5 3 8h13c3 -3 3 -3 3 -5l11 -19h32h17h14h160l14 3c1 1 3 7 6 14c0 1 1 2 1 3c1 1 2 2 2 4z" />
    <glyph glyph-name="uniF03B" unicode="&#xf03b;" 
d="M242 562h-7c-27 0 -34 -8 -34 -41c0 -31 -1 -52 -1 -60c-4 -32 -14 -49 -41 -61c30 -12 42 -34 42 -91c0 -24 0 -40 1 -46c2 -14 6 -20 14 -23c4 -2 13 -3 26 -3v-30h-11c-29 0 -39 3 -52 19c-10 15 -12 34 -12 79c0 24 -2 40 -4 50c-4 18 -19 28 -38 28v33
c9 1 15 2 20 5c14 8 19 21 21 45c0 2 -1 69 5 91c3 9 7 16 12 22c12 12 25 14 48 14h11v-31zM458 593h12c13 0 23 0 29 -3c8 -2 16 -8 21 -16c11 -15 12 -26 13 -79c0 -26 2 -43 4 -51c5 -17 18 -27 38 -28v-33c-8 0 -15 -1 -20 -4c-13 -8 -20 -21 -21 -45
c0 -2 1 -69 -5 -91c-3 -9 -7 -17 -12 -23c-11 -11 -22 -13 -47 -13h-12v30h7c27 0 34 6 34 42c0 29 0 50 2 61c3 33 16 50 40 60c-31 15 -42 37 -42 91c0 30 -1 48 -2 52c-3 15 -8 19 -32 19h-7v31zM354 510c50 0 82 -50 82 -110c0 -59 -32 -110 -82 -110
c-52 0 -86 50 -86 110s34 110 86 110zM354 487c-40 0 -63 -40 -63 -87s23 -87 63 -87c38 0 59 39 59 87c0 47 -21 87 -59 87zM396 463l-12 15l-76 -140l13 -15z" />
    <glyph glyph-name="uniF0CA" unicode="&#xf0ca;" 
d="M199 555c12 0 21 -4 28 -11c8 -8 12 -18 12 -29c0 -10 -4 -20 -12 -29c-7 -5 -17 -10 -28 -10s-20 5 -28 10c-7 9 -12 19 -12 29c0 11 5 21 12 29c8 7 17 11 28 11zM284 544h242c8 0 15 -8 15 -17v-23c0 -9 -7 -17 -15 -17h-242c-9 0 -16 8 -16 17v23c0 9 7 17 16 17z
M199 440c12 0 21 -5 28 -11c8 -7 12 -18 12 -29s-4 -21 -12 -28c-7 -7 -17 -12 -28 -12s-20 5 -28 12c-7 7 -12 17 -12 28s5 22 12 29c8 6 17 11 28 11zM284 428h242c8 0 15 -7 15 -16v-24c0 -9 -7 -16 -15 -16h-242c-9 0 -16 7 -16 16v24c0 9 7 16 16 16zM199 324
c12 0 21 -4 28 -10c8 -8 12 -18 12 -29s-4 -21 -12 -29c-7 -6 -17 -11 -28 -11c-22 0 -40 17 -40 40c0 11 5 21 12 29c8 6 17 10 28 10zM284 313h242c8 0 15 -8 15 -17v-23c0 -9 -7 -16 -15 -16h-242c-9 0 -16 7 -16 16v23c0 9 7 17 16 17z" />
    <glyph glyph-name="uniF0CB" unicode="&#xf0cb;" 
d="M198 484h19v-13h-54v13h20v55c-3 -4 -7 -8 -11 -11l-10 10l22 21h14v-75zM284 544h242c8 0 15 -8 15 -17v-23c0 -9 -7 -17 -15 -17h-242c-9 0 -16 8 -16 17v23c0 9 7 17 16 17zM171 419l-10 7c6 12 16 18 27 18c16 0 29 -9 29 -26c0 -13 -10 -21 -20 -28s-20 -12 -20 -21
h29v11h14v-24h-59c-1 3 -2 6 -2 8c0 15 10 24 21 31s21 13 21 22s-6 12 -14 12c-6 0 -12 -4 -16 -10zM284 428h242c8 0 15 -7 15 -16v-24c0 -9 -7 -16 -15 -16h-242c-9 0 -16 7 -16 16v24c0 9 7 16 16 16zM217 318l-20 -24c11 -2 23 -10 23 -25c0 -14 -12 -28 -32 -28
c-9 0 -16 3 -21 6c-3 2 -5 4 -6 6l7 11c0 -1 2 -2 3 -3l2 -2c4 -3 9 -4 14 -4c10 0 16 6 16 14s-7 13 -16 13h-5l-3 8l18 23l3 3h-24v-11h-13v24h54v-11zM284 313h242c8 0 15 -8 15 -17v-23c0 -9 -7 -16 -15 -16h-242c-9 0 -16 7 -16 16v23c0 9 7 17 16 17z" />
  </font>
</defs>
</svg>
